<svg xmlns="http://www.w3.org/2000/svg" width="715" height="415" viewBox="0 0 715 415"><g><g opacity=".03"><path fill="#282828" d="M178 1h3v207h-3z"/></g><g opacity=".03"><path fill="#282828" d="M715 311h-3V104h3z"/></g><g opacity=".03"><path fill="#282828" d="M359 311h-3V104h3z"/></g><g opacity=".03"><path fill="#282828" d="M179.384 205.451l1.5 2.598L1.616 311.55l-1.5-2.598z"/></g><g opacity=".03"><path fill="#282828" d="M536.884 411.95l-1.5 2.6-179.268-103.501 1.5-2.598z"/></g><g opacity=".03"><path fill="#282828" d="M535.616 414.55l-1.5-2.599 179.268-103.5 1.5 2.598z"/></g><g opacity=".03"><path fill="#282828" d="M534.115 2.609l1.502-2.595L715.009 103.39l-1.501 2.596z"/></g><g opacity=".03"><path fill="#282828" d="M535.384.014l1.5 2.595-179.392 103.378-1.5-2.596z"/></g><g opacity=".03"><path fill="#282828" d="M180.884 411.95l-1.5 2.6L.116 311.048l1.5-2.598z"/></g><g opacity=".03"><path fill="#282828" d="M534 1h3v207h-3z"/></g><g opacity=".03"><path fill="#282828" d="M179.616 414.55l-1.5-2.599 179.268-103.5 1.5 2.598z"/></g><g opacity=".03"><path fill="#282828" d="M357.616 311.55l-1.5-2.6 179.268-103.499 1.5 2.598z"/></g></g></svg>